<svg
  xmlns="http://www.w3.org/2000/svg" x="0px" y="0px"
  width="128" height="128"
  viewBox="0 0 172 172"
  style=" fill:#000000;">
    <g fill="none" fill-rule="nonzero" stroke="none" stroke-width="1" stroke-linecap="butt" stroke-linejoin="miter" stroke-miterlimit="10" stroke-dasharray="" stroke-dashoffset="0" font-family="none" font-weight="none" font-size="none" text-anchor="none" style="mix-blend-mode: normal">
      <path d="M0,172v-172h172v172z" fill="none"></path>
      <g>
        <path d="M157.66667,86c0,39.57433 -32.09233,71.66667 -71.66667,71.66667c-39.57433,0 -71.66667,-32.09233 -71.66667,-71.66667c0,-39.57433 32.09233,-71.66667 71.66667,-71.66667c39.57433,0 71.66667,32.09233 71.66667,71.66667z" fill="#90a4ae"></path>
        <path d="M146.91667,86c0,33.65108 -27.26558,60.91667 -60.91667,60.91667c-33.65108,0 -60.91667,-27.26558 -60.91667,-60.91667c0,-33.65108 27.26558,-60.91667 60.91667,-60.91667c33.65108,0 60.91667,27.26558 60.91667,60.91667z" fill="#cfd8dc"></path>
        <path d="M125.52775,46.47225c-22.57858,0.18275 -45.0855,16.89542 -56.36583,28.19008c-11.352,0 -28.37283,5.66883 -34.04167,17.02083c5.57208,0 18.68708,0 28.37283,0l-5.68317,11.33767l11.16925,11.352l11.352,-5.66883c0,9.67142 0,22.78642 0,28.37283c11.352,-5.68317 17.02083,-22.704 17.02083,-34.04167c11.28033,-11.29467 27.99658,-33.80517 28.17575,-56.36583l0.19708,-0.19708c-0.07167,0 -0.12542,0 -0.19708,0zM103.02083,74.648c-3.13542,0 -5.66883,-2.53342 -5.66883,-5.66883c0,-3.13542 2.53342,-5.66883 5.66883,-5.66883c3.13542,0 5.66883,2.53342 5.66883,5.66883c0,3.13542 -2.53342,5.66883 -5.66883,5.66883z" fill="#37474f"></path>
        <path d="M65.618,116.70917l-1.07858,-1.09292c0,0 -4.05992,3.3325 -11.40933,3.3325l-0.07167,-0.01433v-0.07167c0,-7.34942 3.3325,-11.40933 3.3325,-11.40933l-1.09292,-1.09292c0,0 -8.987,3.50092 -9.00133,19.31775l-0.02867,0.02867c0.01433,0 0.02867,0 0.02867,0c15.83833,-0.01075 19.32133,-8.99775 19.32133,-8.99775z" fill="#37474f"></path>
      </g>
    </g>
</svg>